<mxfile host="app.diagrams.net" agent="Mozilla/5.0 (Windows NT 10.0; Win64; x64) AppleWebKit/537.36 (KHTML, like Gecko) Chrome/133.0.0.0 Safari/537.36 Edg/133.0.0.0" version="26.0.16">
  <diagram name="Page-1" id="pi2Q9wQ0Mi0Qq8orbZeJ">
    <mxGraphModel dx="1104" dy="1231" grid="0" gridSize="10" guides="1" tooltips="1" connect="1" arrows="1" fold="1" page="0" pageScale="1" pageWidth="850" pageHeight="1100" math="0" shadow="0">
      <root>
        <mxCell id="0" />
        <mxCell id="1" parent="0" />
        <mxCell id="1FlddTCd1Ezz8-99d3eK-143" value="pet_store" style="shape=table;startSize=30;container=1;collapsible=1;childLayout=tableLayout;fixedRows=1;rowLines=0;fontStyle=1;align=center;resizeLast=1;html=1;" parent="1" vertex="1">
          <mxGeometry x="-233" y="-340" width="179" height="265" as="geometry" />
        </mxCell>
        <mxCell id="1FlddTCd1Ezz8-99d3eK-144" value="" style="shape=tableRow;horizontal=0;startSize=0;swimlaneHead=0;swimlaneBody=0;fillColor=none;collapsible=0;dropTarget=0;points=[[0,0.5],[1,0.5]];portConstraint=eastwest;top=0;left=0;right=0;bottom=1;" parent="1FlddTCd1Ezz8-99d3eK-143" vertex="1">
          <mxGeometry y="30" width="179" height="30" as="geometry" />
        </mxCell>
        <mxCell id="1FlddTCd1Ezz8-99d3eK-145" value="PK" style="shape=partialRectangle;connectable=0;fillColor=none;top=0;left=0;bottom=0;right=0;fontStyle=1;overflow=hidden;whiteSpace=wrap;html=1;" parent="1FlddTCd1Ezz8-99d3eK-144" vertex="1">
          <mxGeometry width="36.75" height="30" as="geometry">
            <mxRectangle width="36.75" height="30" as="alternateBounds" />
          </mxGeometry>
        </mxCell>
        <mxCell id="1FlddTCd1Ezz8-99d3eK-146" value="pet_store_id" style="shape=partialRectangle;connectable=0;fillColor=none;top=0;left=0;bottom=0;right=0;align=left;spacingLeft=6;fontStyle=5;overflow=hidden;whiteSpace=wrap;html=1;" parent="1FlddTCd1Ezz8-99d3eK-144" vertex="1">
          <mxGeometry x="36.75" width="142.25" height="30" as="geometry">
            <mxRectangle width="142.25" height="30" as="alternateBounds" />
          </mxGeometry>
        </mxCell>
        <mxCell id="1FlddTCd1Ezz8-99d3eK-150" value="" style="shape=tableRow;horizontal=0;startSize=0;swimlaneHead=0;swimlaneBody=0;fillColor=none;collapsible=0;dropTarget=0;points=[[0,0.5],[1,0.5]];portConstraint=eastwest;top=0;left=0;right=0;bottom=0;" parent="1FlddTCd1Ezz8-99d3eK-143" vertex="1">
          <mxGeometry y="60" width="179" height="30" as="geometry" />
        </mxCell>
        <mxCell id="1FlddTCd1Ezz8-99d3eK-151" value="" style="shape=partialRectangle;connectable=0;fillColor=none;top=0;left=0;bottom=0;right=0;editable=1;overflow=hidden;whiteSpace=wrap;html=1;" parent="1FlddTCd1Ezz8-99d3eK-150" vertex="1">
          <mxGeometry width="36.75" height="30" as="geometry">
            <mxRectangle width="36.75" height="30" as="alternateBounds" />
          </mxGeometry>
        </mxCell>
        <mxCell id="1FlddTCd1Ezz8-99d3eK-152" value="pet_store_name" style="shape=partialRectangle;connectable=0;fillColor=none;top=0;left=0;bottom=0;right=0;align=left;spacingLeft=6;overflow=hidden;whiteSpace=wrap;html=1;" parent="1FlddTCd1Ezz8-99d3eK-150" vertex="1">
          <mxGeometry x="36.75" width="142.25" height="30" as="geometry">
            <mxRectangle width="142.25" height="30" as="alternateBounds" />
          </mxGeometry>
        </mxCell>
        <mxCell id="1FlddTCd1Ezz8-99d3eK-153" value="" style="shape=tableRow;horizontal=0;startSize=0;swimlaneHead=0;swimlaneBody=0;fillColor=none;collapsible=0;dropTarget=0;points=[[0,0.5],[1,0.5]];portConstraint=eastwest;top=0;left=0;right=0;bottom=0;" parent="1FlddTCd1Ezz8-99d3eK-143" vertex="1">
          <mxGeometry y="90" width="179" height="35" as="geometry" />
        </mxCell>
        <mxCell id="1FlddTCd1Ezz8-99d3eK-154" value="" style="shape=partialRectangle;connectable=0;fillColor=none;top=0;left=0;bottom=0;right=0;editable=1;overflow=hidden;whiteSpace=wrap;html=1;" parent="1FlddTCd1Ezz8-99d3eK-153" vertex="1">
          <mxGeometry width="36.75" height="35" as="geometry">
            <mxRectangle width="36.75" height="35" as="alternateBounds" />
          </mxGeometry>
        </mxCell>
        <mxCell id="1FlddTCd1Ezz8-99d3eK-155" value="pet_store_address" style="shape=partialRectangle;connectable=0;fillColor=none;top=0;left=0;bottom=0;right=0;align=left;spacingLeft=6;overflow=hidden;whiteSpace=wrap;html=1;" parent="1FlddTCd1Ezz8-99d3eK-153" vertex="1">
          <mxGeometry x="36.75" width="142.25" height="35" as="geometry">
            <mxRectangle width="142.25" height="35" as="alternateBounds" />
          </mxGeometry>
        </mxCell>
        <mxCell id="1FlddTCd1Ezz8-99d3eK-156" value="" style="shape=tableRow;horizontal=0;startSize=0;swimlaneHead=0;swimlaneBody=0;fillColor=none;collapsible=0;dropTarget=0;points=[[0,0.5],[1,0.5]];portConstraint=eastwest;top=0;left=0;right=0;bottom=0;" parent="1FlddTCd1Ezz8-99d3eK-143" vertex="1">
          <mxGeometry y="125" width="179" height="35" as="geometry" />
        </mxCell>
        <mxCell id="1FlddTCd1Ezz8-99d3eK-157" value="" style="shape=partialRectangle;connectable=0;fillColor=none;top=0;left=0;bottom=0;right=0;editable=1;overflow=hidden;whiteSpace=wrap;html=1;" parent="1FlddTCd1Ezz8-99d3eK-156" vertex="1">
          <mxGeometry width="36.75" height="35" as="geometry">
            <mxRectangle width="36.75" height="35" as="alternateBounds" />
          </mxGeometry>
        </mxCell>
        <mxCell id="1FlddTCd1Ezz8-99d3eK-158" value="pet_store_city" style="shape=partialRectangle;connectable=0;fillColor=none;top=0;left=0;bottom=0;right=0;align=left;spacingLeft=6;overflow=hidden;whiteSpace=wrap;html=1;" parent="1FlddTCd1Ezz8-99d3eK-156" vertex="1">
          <mxGeometry x="36.75" width="142.25" height="35" as="geometry">
            <mxRectangle width="142.25" height="35" as="alternateBounds" />
          </mxGeometry>
        </mxCell>
        <mxCell id="1FlddTCd1Ezz8-99d3eK-159" value="" style="shape=tableRow;horizontal=0;startSize=0;swimlaneHead=0;swimlaneBody=0;fillColor=none;collapsible=0;dropTarget=0;points=[[0,0.5],[1,0.5]];portConstraint=eastwest;top=0;left=0;right=0;bottom=0;" parent="1FlddTCd1Ezz8-99d3eK-143" vertex="1">
          <mxGeometry y="160" width="179" height="35" as="geometry" />
        </mxCell>
        <mxCell id="1FlddTCd1Ezz8-99d3eK-160" value="" style="shape=partialRectangle;connectable=0;fillColor=none;top=0;left=0;bottom=0;right=0;editable=1;overflow=hidden;whiteSpace=wrap;html=1;" parent="1FlddTCd1Ezz8-99d3eK-159" vertex="1">
          <mxGeometry width="36.75" height="35" as="geometry">
            <mxRectangle width="36.75" height="35" as="alternateBounds" />
          </mxGeometry>
        </mxCell>
        <mxCell id="1FlddTCd1Ezz8-99d3eK-161" value="pet_store_state" style="shape=partialRectangle;connectable=0;fillColor=none;top=0;left=0;bottom=0;right=0;align=left;spacingLeft=6;overflow=hidden;whiteSpace=wrap;html=1;" parent="1FlddTCd1Ezz8-99d3eK-159" vertex="1">
          <mxGeometry x="36.75" width="142.25" height="35" as="geometry">
            <mxRectangle width="142.25" height="35" as="alternateBounds" />
          </mxGeometry>
        </mxCell>
        <mxCell id="1FlddTCd1Ezz8-99d3eK-162" value="" style="shape=tableRow;horizontal=0;startSize=0;swimlaneHead=0;swimlaneBody=0;fillColor=none;collapsible=0;dropTarget=0;points=[[0,0.5],[1,0.5]];portConstraint=eastwest;top=0;left=0;right=0;bottom=0;" parent="1FlddTCd1Ezz8-99d3eK-143" vertex="1">
          <mxGeometry y="195" width="179" height="35" as="geometry" />
        </mxCell>
        <mxCell id="1FlddTCd1Ezz8-99d3eK-163" value="" style="shape=partialRectangle;connectable=0;fillColor=none;top=0;left=0;bottom=0;right=0;editable=1;overflow=hidden;whiteSpace=wrap;html=1;" parent="1FlddTCd1Ezz8-99d3eK-162" vertex="1">
          <mxGeometry width="36.75" height="35" as="geometry">
            <mxRectangle width="36.75" height="35" as="alternateBounds" />
          </mxGeometry>
        </mxCell>
        <mxCell id="1FlddTCd1Ezz8-99d3eK-164" value="pet_store_zip" style="shape=partialRectangle;connectable=0;fillColor=none;top=0;left=0;bottom=0;right=0;align=left;spacingLeft=6;overflow=hidden;whiteSpace=wrap;html=1;" parent="1FlddTCd1Ezz8-99d3eK-162" vertex="1">
          <mxGeometry x="36.75" width="142.25" height="35" as="geometry">
            <mxRectangle width="142.25" height="35" as="alternateBounds" />
          </mxGeometry>
        </mxCell>
        <mxCell id="1FlddTCd1Ezz8-99d3eK-165" value="" style="shape=tableRow;horizontal=0;startSize=0;swimlaneHead=0;swimlaneBody=0;fillColor=none;collapsible=0;dropTarget=0;points=[[0,0.5],[1,0.5]];portConstraint=eastwest;top=0;left=0;right=0;bottom=0;" parent="1FlddTCd1Ezz8-99d3eK-143" vertex="1">
          <mxGeometry y="230" width="179" height="35" as="geometry" />
        </mxCell>
        <mxCell id="1FlddTCd1Ezz8-99d3eK-166" value="" style="shape=partialRectangle;connectable=0;fillColor=none;top=0;left=0;bottom=0;right=0;editable=1;overflow=hidden;whiteSpace=wrap;html=1;" parent="1FlddTCd1Ezz8-99d3eK-165" vertex="1">
          <mxGeometry width="36.75" height="35" as="geometry">
            <mxRectangle width="36.75" height="35" as="alternateBounds" />
          </mxGeometry>
        </mxCell>
        <mxCell id="1FlddTCd1Ezz8-99d3eK-167" value="pet_store_phone" style="shape=partialRectangle;connectable=0;fillColor=none;top=0;left=0;bottom=0;right=0;align=left;spacingLeft=6;overflow=hidden;whiteSpace=wrap;html=1;" parent="1FlddTCd1Ezz8-99d3eK-165" vertex="1">
          <mxGeometry x="36.75" width="142.25" height="35" as="geometry">
            <mxRectangle width="142.25" height="35" as="alternateBounds" />
          </mxGeometry>
        </mxCell>
        <mxCell id="1FlddTCd1Ezz8-99d3eK-184" value="employee" style="shape=table;startSize=30;container=1;collapsible=1;childLayout=tableLayout;fixedRows=1;rowLines=0;fontStyle=1;align=center;resizeLast=1;html=1;whiteSpace=wrap;" parent="1" vertex="1">
          <mxGeometry x="87" y="-283" width="215.75" height="215" as="geometry" />
        </mxCell>
        <mxCell id="1FlddTCd1Ezz8-99d3eK-185" value="" style="shape=tableRow;horizontal=0;startSize=0;swimlaneHead=0;swimlaneBody=0;fillColor=none;collapsible=0;dropTarget=0;points=[[0,0.5],[1,0.5]];portConstraint=eastwest;top=0;left=0;right=0;bottom=0;html=1;" parent="1FlddTCd1Ezz8-99d3eK-184" vertex="1">
          <mxGeometry y="30" width="215.75" height="30" as="geometry" />
        </mxCell>
        <mxCell id="1FlddTCd1Ezz8-99d3eK-186" value="PK," style="shape=partialRectangle;connectable=0;fillColor=none;top=0;left=0;bottom=0;right=0;fontStyle=1;overflow=hidden;html=1;whiteSpace=wrap;" parent="1FlddTCd1Ezz8-99d3eK-185" vertex="1">
          <mxGeometry width="60" height="30" as="geometry">
            <mxRectangle width="60" height="30" as="alternateBounds" />
          </mxGeometry>
        </mxCell>
        <mxCell id="1FlddTCd1Ezz8-99d3eK-187" value="employee_id" style="shape=partialRectangle;connectable=0;fillColor=none;top=0;left=0;bottom=0;right=0;align=left;spacingLeft=6;fontStyle=5;overflow=hidden;html=1;whiteSpace=wrap;" parent="1FlddTCd1Ezz8-99d3eK-185" vertex="1">
          <mxGeometry x="60" width="155.75" height="30" as="geometry">
            <mxRectangle width="155.75" height="30" as="alternateBounds" />
          </mxGeometry>
        </mxCell>
        <mxCell id="1FlddTCd1Ezz8-99d3eK-188" value="" style="shape=tableRow;horizontal=0;startSize=0;swimlaneHead=0;swimlaneBody=0;fillColor=none;collapsible=0;dropTarget=0;points=[[0,0.5],[1,0.5]];portConstraint=eastwest;top=0;left=0;right=0;bottom=1;html=1;" parent="1FlddTCd1Ezz8-99d3eK-184" vertex="1">
          <mxGeometry y="60" width="215.75" height="30" as="geometry" />
        </mxCell>
        <mxCell id="1FlddTCd1Ezz8-99d3eK-189" value="FK" style="shape=partialRectangle;connectable=0;fillColor=none;top=0;left=0;bottom=0;right=0;fontStyle=1;overflow=hidden;html=1;whiteSpace=wrap;" parent="1FlddTCd1Ezz8-99d3eK-188" vertex="1">
          <mxGeometry width="60" height="30" as="geometry">
            <mxRectangle width="60" height="30" as="alternateBounds" />
          </mxGeometry>
        </mxCell>
        <mxCell id="1FlddTCd1Ezz8-99d3eK-190" value="pet_store_id" style="shape=partialRectangle;connectable=0;fillColor=none;top=0;left=0;bottom=0;right=0;align=left;spacingLeft=6;fontStyle=5;overflow=hidden;html=1;whiteSpace=wrap;" parent="1FlddTCd1Ezz8-99d3eK-188" vertex="1">
          <mxGeometry x="60" width="155.75" height="30" as="geometry">
            <mxRectangle width="155.75" height="30" as="alternateBounds" />
          </mxGeometry>
        </mxCell>
        <mxCell id="1FlddTCd1Ezz8-99d3eK-191" value="" style="shape=tableRow;horizontal=0;startSize=0;swimlaneHead=0;swimlaneBody=0;fillColor=none;collapsible=0;dropTarget=0;points=[[0,0.5],[1,0.5]];portConstraint=eastwest;top=0;left=0;right=0;bottom=0;html=1;" parent="1FlddTCd1Ezz8-99d3eK-184" vertex="1">
          <mxGeometry y="90" width="215.75" height="30" as="geometry" />
        </mxCell>
        <mxCell id="1FlddTCd1Ezz8-99d3eK-192" value="" style="shape=partialRectangle;connectable=0;fillColor=none;top=0;left=0;bottom=0;right=0;editable=1;overflow=hidden;html=1;whiteSpace=wrap;" parent="1FlddTCd1Ezz8-99d3eK-191" vertex="1">
          <mxGeometry width="60" height="30" as="geometry">
            <mxRectangle width="60" height="30" as="alternateBounds" />
          </mxGeometry>
        </mxCell>
        <mxCell id="1FlddTCd1Ezz8-99d3eK-193" value="&lt;div&gt;employee_first_name&lt;/div&gt;" style="shape=partialRectangle;connectable=0;fillColor=none;top=0;left=0;bottom=0;right=0;align=left;spacingLeft=6;overflow=hidden;html=1;whiteSpace=wrap;" parent="1FlddTCd1Ezz8-99d3eK-191" vertex="1">
          <mxGeometry x="60" width="155.75" height="30" as="geometry">
            <mxRectangle width="155.75" height="30" as="alternateBounds" />
          </mxGeometry>
        </mxCell>
        <mxCell id="1FlddTCd1Ezz8-99d3eK-194" value="" style="shape=tableRow;horizontal=0;startSize=0;swimlaneHead=0;swimlaneBody=0;fillColor=none;collapsible=0;dropTarget=0;points=[[0,0.5],[1,0.5]];portConstraint=eastwest;top=0;left=0;right=0;bottom=0;html=1;" parent="1FlddTCd1Ezz8-99d3eK-184" vertex="1">
          <mxGeometry y="120" width="215.75" height="30" as="geometry" />
        </mxCell>
        <mxCell id="1FlddTCd1Ezz8-99d3eK-195" value="" style="shape=partialRectangle;connectable=0;fillColor=none;top=0;left=0;bottom=0;right=0;editable=1;overflow=hidden;html=1;whiteSpace=wrap;" parent="1FlddTCd1Ezz8-99d3eK-194" vertex="1">
          <mxGeometry width="60" height="30" as="geometry">
            <mxRectangle width="60" height="30" as="alternateBounds" />
          </mxGeometry>
        </mxCell>
        <mxCell id="1FlddTCd1Ezz8-99d3eK-196" value="employee_last_name" style="shape=partialRectangle;connectable=0;fillColor=none;top=0;left=0;bottom=0;right=0;align=left;spacingLeft=6;overflow=hidden;html=1;whiteSpace=wrap;" parent="1FlddTCd1Ezz8-99d3eK-194" vertex="1">
          <mxGeometry x="60" width="155.75" height="30" as="geometry">
            <mxRectangle width="155.75" height="30" as="alternateBounds" />
          </mxGeometry>
        </mxCell>
        <mxCell id="1FlddTCd1Ezz8-99d3eK-197" value="" style="shape=tableRow;horizontal=0;startSize=0;swimlaneHead=0;swimlaneBody=0;fillColor=none;collapsible=0;dropTarget=0;points=[[0,0.5],[1,0.5]];portConstraint=eastwest;top=0;left=0;right=0;bottom=0;html=1;" parent="1FlddTCd1Ezz8-99d3eK-184" vertex="1">
          <mxGeometry y="150" width="215.75" height="30" as="geometry" />
        </mxCell>
        <mxCell id="1FlddTCd1Ezz8-99d3eK-198" value="" style="shape=partialRectangle;connectable=0;fillColor=none;top=0;left=0;bottom=0;right=0;editable=1;overflow=hidden;html=1;whiteSpace=wrap;" parent="1FlddTCd1Ezz8-99d3eK-197" vertex="1">
          <mxGeometry width="60" height="30" as="geometry">
            <mxRectangle width="60" height="30" as="alternateBounds" />
          </mxGeometry>
        </mxCell>
        <mxCell id="1FlddTCd1Ezz8-99d3eK-199" value="employee_phone" style="shape=partialRectangle;connectable=0;fillColor=none;top=0;left=0;bottom=0;right=0;align=left;spacingLeft=6;overflow=hidden;html=1;whiteSpace=wrap;" parent="1FlddTCd1Ezz8-99d3eK-197" vertex="1">
          <mxGeometry x="60" width="155.75" height="30" as="geometry">
            <mxRectangle width="155.75" height="30" as="alternateBounds" />
          </mxGeometry>
        </mxCell>
        <mxCell id="1FlddTCd1Ezz8-99d3eK-200" value="" style="shape=tableRow;horizontal=0;startSize=0;swimlaneHead=0;swimlaneBody=0;fillColor=none;collapsible=0;dropTarget=0;points=[[0,0.5],[1,0.5]];portConstraint=eastwest;top=0;left=0;right=0;bottom=0;html=1;" parent="1FlddTCd1Ezz8-99d3eK-184" vertex="1">
          <mxGeometry y="180" width="215.75" height="30" as="geometry" />
        </mxCell>
        <mxCell id="1FlddTCd1Ezz8-99d3eK-201" value="" style="shape=partialRectangle;connectable=0;fillColor=none;top=0;left=0;bottom=0;right=0;editable=1;overflow=hidden;html=1;whiteSpace=wrap;" parent="1FlddTCd1Ezz8-99d3eK-200" vertex="1">
          <mxGeometry width="60" height="30" as="geometry">
            <mxRectangle width="60" height="30" as="alternateBounds" />
          </mxGeometry>
        </mxCell>
        <mxCell id="1FlddTCd1Ezz8-99d3eK-202" value="employee_job_title" style="shape=partialRectangle;connectable=0;fillColor=none;top=0;left=0;bottom=0;right=0;align=left;spacingLeft=6;overflow=hidden;html=1;whiteSpace=wrap;" parent="1FlddTCd1Ezz8-99d3eK-200" vertex="1">
          <mxGeometry x="60" width="155.75" height="30" as="geometry">
            <mxRectangle width="155.75" height="30" as="alternateBounds" />
          </mxGeometry>
        </mxCell>
        <mxCell id="1FlddTCd1Ezz8-99d3eK-203" value="customer" style="shape=table;startSize=30;container=1;collapsible=1;childLayout=tableLayout;fixedRows=1;rowLines=0;fontStyle=1;align=center;resizeLast=1;html=1;" parent="1" vertex="1">
          <mxGeometry x="-231" y="-43" width="180" height="150" as="geometry" />
        </mxCell>
        <mxCell id="1FlddTCd1Ezz8-99d3eK-204" value="" style="shape=tableRow;horizontal=0;startSize=0;swimlaneHead=0;swimlaneBody=0;fillColor=none;collapsible=0;dropTarget=0;points=[[0,0.5],[1,0.5]];portConstraint=eastwest;top=0;left=0;right=0;bottom=1;" parent="1FlddTCd1Ezz8-99d3eK-203" vertex="1">
          <mxGeometry y="30" width="180" height="30" as="geometry" />
        </mxCell>
        <mxCell id="1FlddTCd1Ezz8-99d3eK-205" value="PK" style="shape=partialRectangle;connectable=0;fillColor=none;top=0;left=0;bottom=0;right=0;fontStyle=1;overflow=hidden;whiteSpace=wrap;html=1;" parent="1FlddTCd1Ezz8-99d3eK-204" vertex="1">
          <mxGeometry width="30" height="30" as="geometry">
            <mxRectangle width="30" height="30" as="alternateBounds" />
          </mxGeometry>
        </mxCell>
        <mxCell id="1FlddTCd1Ezz8-99d3eK-206" value="customer_id&amp;nbsp;" style="shape=partialRectangle;connectable=0;fillColor=none;top=0;left=0;bottom=0;right=0;align=left;spacingLeft=6;fontStyle=5;overflow=hidden;whiteSpace=wrap;html=1;" parent="1FlddTCd1Ezz8-99d3eK-204" vertex="1">
          <mxGeometry x="30" width="150" height="30" as="geometry">
            <mxRectangle width="150" height="30" as="alternateBounds" />
          </mxGeometry>
        </mxCell>
        <mxCell id="1FlddTCd1Ezz8-99d3eK-207" value="" style="shape=tableRow;horizontal=0;startSize=0;swimlaneHead=0;swimlaneBody=0;fillColor=none;collapsible=0;dropTarget=0;points=[[0,0.5],[1,0.5]];portConstraint=eastwest;top=0;left=0;right=0;bottom=0;" parent="1FlddTCd1Ezz8-99d3eK-203" vertex="1">
          <mxGeometry y="60" width="180" height="30" as="geometry" />
        </mxCell>
        <mxCell id="1FlddTCd1Ezz8-99d3eK-208" value="" style="shape=partialRectangle;connectable=0;fillColor=none;top=0;left=0;bottom=0;right=0;editable=1;overflow=hidden;whiteSpace=wrap;html=1;" parent="1FlddTCd1Ezz8-99d3eK-207" vertex="1">
          <mxGeometry width="30" height="30" as="geometry">
            <mxRectangle width="30" height="30" as="alternateBounds" />
          </mxGeometry>
        </mxCell>
        <mxCell id="1FlddTCd1Ezz8-99d3eK-209" value="customer_first_name" style="shape=partialRectangle;connectable=0;fillColor=none;top=0;left=0;bottom=0;right=0;align=left;spacingLeft=6;overflow=hidden;whiteSpace=wrap;html=1;" parent="1FlddTCd1Ezz8-99d3eK-207" vertex="1">
          <mxGeometry x="30" width="150" height="30" as="geometry">
            <mxRectangle width="150" height="30" as="alternateBounds" />
          </mxGeometry>
        </mxCell>
        <mxCell id="1FlddTCd1Ezz8-99d3eK-210" value="" style="shape=tableRow;horizontal=0;startSize=0;swimlaneHead=0;swimlaneBody=0;fillColor=none;collapsible=0;dropTarget=0;points=[[0,0.5],[1,0.5]];portConstraint=eastwest;top=0;left=0;right=0;bottom=0;" parent="1FlddTCd1Ezz8-99d3eK-203" vertex="1">
          <mxGeometry y="90" width="180" height="30" as="geometry" />
        </mxCell>
        <mxCell id="1FlddTCd1Ezz8-99d3eK-211" value="" style="shape=partialRectangle;connectable=0;fillColor=none;top=0;left=0;bottom=0;right=0;editable=1;overflow=hidden;whiteSpace=wrap;html=1;" parent="1FlddTCd1Ezz8-99d3eK-210" vertex="1">
          <mxGeometry width="30" height="30" as="geometry">
            <mxRectangle width="30" height="30" as="alternateBounds" />
          </mxGeometry>
        </mxCell>
        <mxCell id="1FlddTCd1Ezz8-99d3eK-212" value="customer_last_name" style="shape=partialRectangle;connectable=0;fillColor=none;top=0;left=0;bottom=0;right=0;align=left;spacingLeft=6;overflow=hidden;whiteSpace=wrap;html=1;" parent="1FlddTCd1Ezz8-99d3eK-210" vertex="1">
          <mxGeometry x="30" width="150" height="30" as="geometry">
            <mxRectangle width="150" height="30" as="alternateBounds" />
          </mxGeometry>
        </mxCell>
        <mxCell id="1FlddTCd1Ezz8-99d3eK-213" value="" style="shape=tableRow;horizontal=0;startSize=0;swimlaneHead=0;swimlaneBody=0;fillColor=none;collapsible=0;dropTarget=0;points=[[0,0.5],[1,0.5]];portConstraint=eastwest;top=0;left=0;right=0;bottom=0;" parent="1FlddTCd1Ezz8-99d3eK-203" vertex="1">
          <mxGeometry y="120" width="180" height="30" as="geometry" />
        </mxCell>
        <mxCell id="1FlddTCd1Ezz8-99d3eK-214" value="" style="shape=partialRectangle;connectable=0;fillColor=none;top=0;left=0;bottom=0;right=0;editable=1;overflow=hidden;whiteSpace=wrap;html=1;" parent="1FlddTCd1Ezz8-99d3eK-213" vertex="1">
          <mxGeometry width="30" height="30" as="geometry">
            <mxRectangle width="30" height="30" as="alternateBounds" />
          </mxGeometry>
        </mxCell>
        <mxCell id="1FlddTCd1Ezz8-99d3eK-215" value="customer_email" style="shape=partialRectangle;connectable=0;fillColor=none;top=0;left=0;bottom=0;right=0;align=left;spacingLeft=6;overflow=hidden;whiteSpace=wrap;html=1;" parent="1FlddTCd1Ezz8-99d3eK-213" vertex="1">
          <mxGeometry x="30" width="150" height="30" as="geometry">
            <mxRectangle width="150" height="30" as="alternateBounds" />
          </mxGeometry>
        </mxCell>
        <mxCell id="1FlddTCd1Ezz8-99d3eK-216" value="" style="edgeStyle=entityRelationEdgeStyle;fontSize=12;html=1;endArrow=ERoneToMany;rounded=0;startSize=8;endSize=8;curved=1;strokeColor=default;exitX=1;exitY=0.5;exitDx=0;exitDy=0;entryX=0;entryY=0.5;entryDx=0;entryDy=0;" parent="1" source="1FlddTCd1Ezz8-99d3eK-144" target="1FlddTCd1Ezz8-99d3eK-188" edge="1">
          <mxGeometry width="100" height="100" relative="1" as="geometry">
            <mxPoint x="-46" y="-257" as="sourcePoint" />
            <mxPoint x="66" y="-304" as="targetPoint" />
            <Array as="points">
              <mxPoint x="-25" y="-14" />
              <mxPoint x="34" y="-180" />
            </Array>
          </mxGeometry>
        </mxCell>
        <mxCell id="1FlddTCd1Ezz8-99d3eK-218" value="" style="fontSize=12;html=1;endArrow=ERmany;startArrow=ERmany;rounded=0;startSize=8;endSize=8;entryX=0;entryY=0.5;entryDx=0;entryDy=0;edgeStyle=elbowEdgeStyle;curved=1;exitX=0;exitY=0.5;exitDx=0;exitDy=0;" parent="1" source="1FlddTCd1Ezz8-99d3eK-144" target="1FlddTCd1Ezz8-99d3eK-204" edge="1">
          <mxGeometry width="100" height="100" relative="1" as="geometry">
            <mxPoint x="-236" y="-295" as="sourcePoint" />
            <mxPoint x="99.07999999999993" y="12.950000000000045" as="targetPoint" />
            <Array as="points">
              <mxPoint x="-286" y="-158" />
            </Array>
          </mxGeometry>
        </mxCell>
        <mxCell id="7BUAFBYmbBcsVAz_ScVq-1" value="pet_store_customer" style="shape=table;startSize=30;container=1;collapsible=1;childLayout=tableLayout;fixedRows=1;rowLines=0;fontStyle=1;align=center;resizeLast=1;html=1;whiteSpace=wrap;strokeColor=default;dashed=1;" vertex="1" parent="1">
          <mxGeometry x="76" y="-43" width="180" height="93" as="geometry" />
        </mxCell>
        <mxCell id="7BUAFBYmbBcsVAz_ScVq-2" value="" style="shape=tableRow;horizontal=0;startSize=0;swimlaneHead=0;swimlaneBody=0;fillColor=none;collapsible=0;dropTarget=0;points=[[0,0.5],[1,0.5]];portConstraint=eastwest;top=0;left=0;right=0;bottom=0;html=1;" vertex="1" parent="7BUAFBYmbBcsVAz_ScVq-1">
          <mxGeometry y="30" width="180" height="28" as="geometry" />
        </mxCell>
        <mxCell id="7BUAFBYmbBcsVAz_ScVq-3" value="PK,FK1" style="shape=partialRectangle;connectable=0;fillColor=none;top=0;left=0;bottom=0;right=0;fontStyle=1;overflow=hidden;html=1;whiteSpace=wrap;" vertex="1" parent="7BUAFBYmbBcsVAz_ScVq-2">
          <mxGeometry width="60" height="28" as="geometry">
            <mxRectangle width="60" height="28" as="alternateBounds" />
          </mxGeometry>
        </mxCell>
        <mxCell id="7BUAFBYmbBcsVAz_ScVq-4" value="pet_store_id" style="shape=partialRectangle;connectable=0;fillColor=none;top=0;left=0;bottom=0;right=0;align=left;spacingLeft=6;fontStyle=5;overflow=hidden;html=1;whiteSpace=wrap;" vertex="1" parent="7BUAFBYmbBcsVAz_ScVq-2">
          <mxGeometry x="60" width="120" height="28" as="geometry">
            <mxRectangle width="120" height="28" as="alternateBounds" />
          </mxGeometry>
        </mxCell>
        <mxCell id="7BUAFBYmbBcsVAz_ScVq-5" value="" style="shape=tableRow;horizontal=0;startSize=0;swimlaneHead=0;swimlaneBody=0;fillColor=none;collapsible=0;dropTarget=0;points=[[0,0.5],[1,0.5]];portConstraint=eastwest;top=0;left=0;right=0;bottom=1;html=1;" vertex="1" parent="7BUAFBYmbBcsVAz_ScVq-1">
          <mxGeometry y="58" width="180" height="35" as="geometry" />
        </mxCell>
        <mxCell id="7BUAFBYmbBcsVAz_ScVq-6" value="PK,FK2" style="shape=partialRectangle;connectable=0;fillColor=none;top=0;left=0;bottom=0;right=0;fontStyle=1;overflow=hidden;html=1;whiteSpace=wrap;" vertex="1" parent="7BUAFBYmbBcsVAz_ScVq-5">
          <mxGeometry width="60" height="35" as="geometry">
            <mxRectangle width="60" height="35" as="alternateBounds" />
          </mxGeometry>
        </mxCell>
        <mxCell id="7BUAFBYmbBcsVAz_ScVq-7" value="&lt;span style=&quot;color: rgb(0, 0, 0); font-family: Helvetica; font-size: 12px; font-style: normal; font-variant-ligatures: normal; font-variant-caps: normal; font-weight: 700; letter-spacing: normal; orphans: 2; text-align: left; text-indent: 0px; text-transform: none; widows: 2; word-spacing: 0px; -webkit-text-stroke-width: 0px; white-space: normal; background-color: rgb(255, 255, 255); text-decoration: underline; float: none; display: inline !important;&quot;&gt;customer_id&amp;nbsp;&amp;nbsp;&lt;/span&gt;&lt;div&gt;&lt;br&gt;&lt;/div&gt;" style="shape=partialRectangle;connectable=0;fillColor=none;top=0;left=0;bottom=0;right=0;align=left;spacingLeft=6;fontStyle=5;overflow=hidden;html=1;whiteSpace=wrap;" vertex="1" parent="7BUAFBYmbBcsVAz_ScVq-5">
          <mxGeometry x="60" width="120" height="35" as="geometry">
            <mxRectangle width="120" height="35" as="alternateBounds" />
          </mxGeometry>
        </mxCell>
        <mxCell id="7BUAFBYmbBcsVAz_ScVq-14" value="" style="endArrow=none;dashed=1;html=1;dashPattern=1 3;strokeWidth=2;rounded=0;fontSize=12;startSize=8;endSize=8;curved=1;exitX=0;exitY=0.172;exitDx=0;exitDy=0;exitPerimeter=0;" edge="1" parent="1" source="7BUAFBYmbBcsVAz_ScVq-1">
          <mxGeometry width="50" height="50" relative="1" as="geometry">
            <mxPoint x="-109" y="14" as="sourcePoint" />
            <mxPoint x="-276" y="-52" as="targetPoint" />
            <Array as="points">
              <mxPoint x="10" y="-83" />
            </Array>
          </mxGeometry>
        </mxCell>
      </root>
    </mxGraphModel>
  </diagram>
</mxfile>
